<svg width="250" height="250" viewBox="0 0 250 250" fill="none" xmlns="http://www.w3.org/2000/svg">
<rect width="250" height="250" fill="url(#paint0_linear_172_2)"/>
<path d="M225 225H25V153.898L45 133.898V205H205V45H133.898L153.898 25H225V225ZM105.614 45H45V105.613L25 125.613V25H125.614L105.614 45Z" fill="white"/>
<path d="M75 125.478V115.446C80.0396 115.446 83.5329 114.544 85.48 112.739C87.4271 110.908 88.4006 108.041 88.4006 104.14V97.9299C88.4006 92.1975 89.3599 87.7654 91.2783 84.6338C93.2254 81.4756 95.8311 79.2197 99.0954 77.8662C102.388 76.5127 106.111 75.7033 110.263 75.4379C114.414 75.146 118.695 75 123.105 75V90.9236C119.669 90.9236 117.12 91.2818 115.46 91.9984C113.799 92.715 112.711 93.8031 112.195 95.2627C111.68 96.7224 111.422 98.5669 111.422 100.796V109.554C111.422 111.545 110.935 113.495 109.962 115.406C109.017 117.29 107.256 118.989 104.679 120.502C102.102 122.014 98.4225 123.222 93.6406 124.124C88.8588 125.027 82.6452 125.478 75 125.478ZM123.105 175C118.695 175 114.414 174.854 110.263 174.562C106.111 174.297 102.388 173.487 99.0954 172.134C95.8311 170.78 93.2254 168.524 91.2783 165.366C89.3599 162.235 88.4006 157.803 88.4006 152.07V145.86C88.4006 141.959 87.4271 139.106 85.48 137.301C83.5329 135.47 80.0396 134.554 75 134.554V124.522C82.6452 124.522 88.8588 124.973 93.6406 125.876C98.4225 126.778 102.102 127.986 104.679 129.498C107.256 131.011 109.017 132.723 109.962 134.634C110.935 136.518 111.422 138.455 111.422 140.446V149.204C111.422 151.407 111.68 153.251 112.195 154.737C112.711 156.197 113.799 157.285 115.46 158.002C117.12 158.718 119.669 159.076 123.105 159.076V175ZM75 134.554V115.446H93.8983V134.554H75Z" fill="white"/>
<path d="M175 124.522V134.554C169.989 134.554 166.496 135.47 164.52 137.301C162.573 139.106 161.599 141.959 161.599 145.86V152.07C161.599 157.803 160.626 162.235 158.679 165.366C156.76 168.524 154.155 170.78 150.862 172.134C147.597 173.487 143.889 174.297 139.737 174.562C135.614 174.854 131.333 175 126.895 175V159.076C130.331 159.076 132.88 158.718 134.54 158.002C136.201 157.285 137.289 156.197 137.805 154.737C138.32 153.251 138.578 151.407 138.578 149.204V140.446C138.578 138.455 139.05 136.518 139.995 134.634C140.969 132.723 142.744 131.011 145.321 129.498C147.898 127.986 151.578 126.778 156.359 125.876C161.141 124.973 167.355 124.522 175 124.522ZM126.895 75C131.333 75 135.614 75.146 139.737 75.4379C143.889 75.7033 147.597 76.5127 150.862 77.8662C154.155 79.2197 156.76 81.4756 158.679 84.6338C160.626 87.7654 161.599 92.1975 161.599 97.9299V104.14C161.599 108.041 162.573 110.908 164.52 112.739C166.496 114.544 169.989 115.446 175 115.446V125.478C167.355 125.478 161.141 125.027 156.359 124.124C151.578 123.222 147.898 122.014 145.321 120.502C142.744 118.989 140.969 117.29 139.995 115.406C139.05 113.495 138.578 111.545 138.578 109.554V100.796C138.578 98.5669 138.32 96.7224 137.805 95.2627C137.289 93.8031 136.201 92.715 134.54 91.9984C132.88 91.2818 130.331 90.9236 126.895 90.9236V75ZM175 115.446V134.554H156.102V115.446H175Z" fill="white"/>
<defs>
<linearGradient id="paint0_linear_172_2" x1="0" y1="0" x2="250" y2="250" gradientUnits="userSpaceOnUse">
<stop stop-color="#3882D2"/>
<stop offset="1" stop-color="#38A0D2"/>
</linearGradient>
</defs>
</svg>
